<?xml version="1.0" encoding="utf-8"?>
<!-- Generator: Adobe Illustrator 24.0.1, SVG Export Plug-In . SVG Version: 6.00 Build 0)  -->
<svg version="1.0" id="Layer_1" xmlns="http://www.w3.org/2000/svg" xmlns:xlink="http://www.w3.org/1999/xlink" x="0px" y="0px"
	 viewBox="0 0 512 512" style="enable-background:new 0 0 512 512;" xml:space="preserve">
<path style="fill:#231F20;" d="M445.6,354.1c-4.7-14.5-19.5-23-34.3-19.9l-24,5V219l12.1,9.6c4,3.2,9,4.9,14.1,4.9
	c7.1,0,13.6-3.2,18-8.7c3.8-4.8,5.5-10.8,4.7-16.8s-3.8-11.5-8.6-15.3L292.5,86.2c-8.3-6.6-20-6.6-28.3,0l-37.1,29.2V99.9
	c0-4.1-3.4-7.5-7.5-7.5h-44.6c-4.1,0-7.5,3.4-7.5,7.5v62.5l-38.5,30.3c-4.8,3.8-7.8,9.2-8.6,15.3s1,12,4.7,16.8
	c7.8,9.9,22.2,11.6,32.1,3.8l12.1-9.6v77.3c-6,1.2-9.7,2.7-10.1,2.9c-0.1,0.1-0.3,0.1-0.4,0.2l-26.7,13.8v-7.5
	c0-4.1-3.4-7.5-7.5-7.5H71.2c-4.1,0-7.5,3.4-7.5,7.5v118.4c0,4.1,3.4,7.5,7.5,7.5h53.5c4.1,0,7.5-3.4,7.5-7.5v-16.4l24.4-8.3
	l114.6,31.8c3.2,0.9,6.4,1.3,9.6,1.3c3.4,0,6.8-0.5,10.1-1.4l134.8-39.3c7.8-2.3,14.2-7.5,17.9-14.6S448.1,361.8,445.6,354.1z
	 M182.4,107.4h29.6v19.8l-29.6,23.3V107.4z M147.9,216.8c-3.4,2.7-8.4,2.1-11-1.3c-1.3-1.6-1.9-3.7-1.6-5.8c0.2-2.1,1.3-3.9,2.9-5.2
	L273.5,98c2.9-2.3,6.9-2.3,9.7,0l135.3,106.5c1.7,1.3,2.7,3.2,2.9,5.2c0.2,2.1-0.3,4.1-1.6,5.8c-1.5,1.9-3.8,3-6.2,3
	c-1.2,0-3.1-0.3-4.8-1.7l-125.8-99c-1.4-1.1-3-1.6-4.6-1.6s-3.3,0.5-4.6,1.6L147.9,216.8z M278.3,133.2l94,74v135.1l-43.4,9.1
	c-1.6-5.1-4.6-9.6-8.6-13.1v-86.1c0-4.1-3.4-7.5-7.5-7.5h-69.1c-4.1,0-7.5,3.4-7.5,7.5v59l-0.4-0.1c-20-12.7-38-16.2-51.5-16.2
	v-87.7L278.3,133.2z M305.4,331l-54.1-15.4v-55.8h54.1V331z M117.2,416.7H78.7V313.2h38.5V416.7z M430.4,370.1
	c-1.9,3.5-5,6.1-8.9,7.2l-134.8,39.3c-3.8,1.1-7.7,1.1-11.5,0.1l-116.8-32.4c-1.5-0.4-3-0.4-4.4,0.1l-21.8,7.4v-61.8l33.3-17.2
	c2.6-1.1,29-10.9,63.2,11.4c0.6,0.4,1.3,0.7,2,0.9l73.8,21.1c5.5,1.6,9.5,6,10.6,11.4c-0.2,5.9-2,10.1-5.2,12.4
	c-5.2,3.8-15.1,3.6-27.1-0.4c-0.1,0-0.3-0.1-0.4-0.1l-69.9-18.8c-4-1.1-8.1,1.3-9.2,5.3s1.3,8.1,5.3,9.2l69.7,18.8
	c7.7,2.5,14.8,3.8,21.1,3.8c7.7,0,14.2-1.9,19.3-5.6c3.8-2.7,8.1-7.5,10.1-15.6l85.5-17.9c7.4-1.5,14.7,2.7,17,9.9
	C432.6,362.5,432.3,366.6,430.4,370.1z"/>
</svg>
